<?xml version="1.0" encoding="UTF-8"?>
<svg xmlns="http://www.w3.org/2000/svg" xmlns:xlink="http://www.w3.org/1999/xlink" width="64pt" height="64pt" viewBox="0 0 64 64" version="1.1">
<defs>
<linearGradient id="linear0" gradientUnits="userSpaceOnUse" x1="66.79688" y1="87.39141" x2="66.79688" y2="172.40977" gradientTransform="matrix(0.284444,0,0,0.284444,0,0)">
<stop offset="0" style="stop-color:rgb(82.352941%,91.764706%,58.431373%);stop-opacity:1;"/>
<stop offset="1" style="stop-color:rgb(47.843137%,70.588235%,43.921569%);stop-opacity:1;"/>
</linearGradient>
<linearGradient id="linear1" gradientUnits="userSpaceOnUse" x1="68.13984" y1="54.22148" x2="68.13984" y2="82.0582" gradientTransform="matrix(0.284444,0,0,0.284444,0,0)">
<stop offset="0" style="stop-color:rgb(82.352941%,91.764706%,58.431373%);stop-opacity:1;"/>
<stop offset="1" style="stop-color:rgb(47.843137%,70.588235%,43.921569%);stop-opacity:1;"/>
</linearGradient>
<linearGradient id="linear2" gradientUnits="userSpaceOnUse" x1="131.43516" y1="49.6582" x2="131.43516" y2="174.11133" gradientTransform="matrix(0.284444,0,0,0.284444,0,0)">
<stop offset="0" style="stop-color:rgb(82.352941%,91.764706%,58.431373%);stop-opacity:1;"/>
<stop offset="1" style="stop-color:rgb(47.843137%,70.588235%,43.921569%);stop-opacity:1;"/>
</linearGradient>
<linearGradient id="linear3" gradientUnits="userSpaceOnUse" x1="112.5" y1="22.85156" x2="112.5" y2="202.14844" gradientTransform="matrix(0.284444,0,0,0.284444,0,0)">
<stop offset="0" style="stop-color:rgb(66.666667%,84.313725%,21.568627%);stop-opacity:1;"/>
<stop offset="1" style="stop-color:rgb(27.45098%,46.27451%,24.313725%);stop-opacity:1;"/>
</linearGradient>
</defs>
<g id="surface3991165">
<path style=" stroke:none;fill-rule:evenodd;fill:url(#linear0);" d="M 22 48 L 22 26 L 16 26 L 16 48 Z M 22 48 "/>
<path style=" stroke:none;fill-rule:evenodd;fill:url(#linear1);" d="M 19.359375 23 C 21.871094 23 23.433594 21.527344 23.433594 19.445312 C 23.386719 17.320312 21.871094 15.796875 19.40625 15.796875 C 16.941406 15.796875 15.328125 17.273438 15.328125 19.398438 C 15.328125 21.476562 16.894531 23 19.3125 23 Z M 19.359375 23 "/>
<path style=" stroke:none;fill-rule:evenodd;fill:url(#linear2);" d="M 26.945312 48 L 34 48 L 34 35.910156 C 34 35.261719 34.121094 34.617188 34.3125 34.152344 C 34.832031 32.859375 36.191406 31.519531 38.179688 31.519531 C 40.785156 31.519531 42 33.507812 42 36.417969 L 42 48 L 48 48 L 48 35.589844 C 48 28.929688 44.914062 26.089844 40.175781 26.089844 C 36.289062 26.089844 35.050781 28 34.101562 30 L 34 30 L 34 26 L 26.945312 26 C 27.039062 28 26.769531 48 26.769531 48 Z M 26.945312 48 "/>
<path style=" stroke:none;fill-rule:nonzero;fill:url(#linear3);" d="M 50 57 L 14 57 C 10.140625 57 7 53.859375 7 50 L 7 14 C 7 10.140625 10.140625 7 14 7 L 50 7 C 53.859375 7 57 10.140625 57 14 L 57 50 C 57 53.859375 53.859375 57 50 57 Z M 14 9 C 11.242188 9 9 11.242188 9 14 L 9 50 C 9 52.757812 11.242188 55 14 55 L 50 55 C 52.757812 55 55 52.757812 55 50 L 55 14 C 55 11.242188 52.757812 9 50 9 Z M 14 9 "/>
</g>
</svg>
